<?xml version="1.0" encoding="utf-8"?>
<!-- Generator: Adobe Illustrator 16.0.0, SVG Export Plug-In . SVG Version: 6.00 Build 0)  -->
<!DOCTYPE svg PUBLIC "-//W3C//DTD SVG 1.1//EN" "http://www.w3.org/Graphics/SVG/1.1/DTD/svg11.dtd">
<svg version="1.1" xmlns="http://www.w3.org/2000/svg" xmlns:xlink="http://www.w3.org/1999/xlink" x="0px" y="0px" width="400px"
	 height="400px" viewBox="0 0 400 400" enable-background="new 0 0 400 400" xml:space="preserve">
<g id="Calque_2" display="none">
	<rect y="0" display="inline" fill="#084287" width="400" height="400"/>
</g>
<g id="Black">
	<g>
		<path d="M138.56,139.833c1.666-0.707,2.733-2.491,2.733-4.639c0-2.978-1.952-4.928-4.959-4.928l-8.85,0.008v9.948h8.513
			C136.822,140.224,137.792,140.152,138.56,139.833z"/>
		<path d="M136.334,272.994l-8.85,0.008v9.949h8.513c0.825,0,1.795-0.072,2.563-0.391c1.666-0.707,2.733-2.49,2.733-4.639
			C141.293,274.943,139.341,272.994,136.334,272.994z"/>
		<path d="M127.484,269.67h8.44c2.594,0,4.221-1.781,4.221-4.389c0-1.666-0.65-3.094-1.871-3.781c-0.813-0.402-1.74-0.57-2.961-0.57
			h-7.829V269.67z"/>
		<path d="M140.146,122.555c0-1.667-0.65-3.094-1.871-3.782c-0.813-0.403-1.74-0.569-2.961-0.569h-7.829v8.74h8.44
			C138.519,126.943,140.146,125.161,140.146,122.555z"/>
		<path d="M294.636,188.526c0-2.994-1.158-5.564-3.355-6.809c-1.479-0.727-3.146-1.02-5.344-1.02h-14.08v15.732h15.18
			C291.72,196.43,294.636,193.221,294.636,188.526z"/>
		<path d="M291.78,219.621c3.014-1.271,4.92-4.482,4.92-8.348c0-5.361-3.514-8.873-8.924-8.873l-15.92,0.027v17.896h15.311
			C288.655,220.324,290.407,220.195,291.78,219.621z"/>
		<path d="M200.002,50.001C117.29,50.001,50,117.291,50,200c0,82.708,67.29,150,150.002,150c82.71,0,149.999-67.291,149.999-150
			C350.001,117.291,282.712,50.001,200.002,50.001z M150.772,74.312c-6.452,7.071-12.296,15.524-17.402,25.119
			c-0.086,0-0.171-0.006-0.257-0.006c-7.661,0-14.646,2.883-19.939,7.619c-1.974-1.671-3.917-3.376-5.796-5.151
			C119.847,90.114,134.544,80.689,150.772,74.312z M127.484,143.568v2.31c0,0.449-0.366,0.84-0.83,0.84h-2.404
			c-0.452,0-0.83-0.391-0.83-0.84v-2.31h-2.307c-0.366,0-0.672-0.301-0.672-0.672l-0.007-2.001c-0.005-0.379,0.3-0.672,0.666-0.672
			h2.319v-22.02h-2.453c-0.293,0-0.525-0.232-0.525-0.525v-2.282c0-0.293,0.232-0.525,0.525-0.525h2.453v-2.344
			c0-0.464,0.378-0.83,0.83-0.83h2.404c0.464,0,0.83,0.366,0.83,0.83v2.344h2.698v-2.344c0-0.464,0.373-0.83,0.836-0.83h2.392
			c0.464,0,0.83,0.366,0.83,0.83v2.344h1.073c2.075,0,3.612,0.208,5.034,0.854c2.287,1.013,3.946,3.372,3.946,6.464
			c0,2.805-1.391,5.034-3.611,6.174v0.081c3.075,0.895,4.752,3.704,4.752,6.945c0,3.786-2.312,6.631-5.289,7.642
			c-1.383,0.451-2.713,0.537-4.3,0.537h-1.605v2.31c0,0.449-0.366,0.84-0.83,0.84h-2.392c-0.463,0-0.836-0.391-0.836-0.84v-2.31
			H127.484z M130.183,257.598v-2.344c0-0.463,0.373-0.83,0.836-0.83h2.392c0.464,0,0.83,0.367,0.83,0.83v2.344h1.073
			c2.075,0,3.612,0.207,5.034,0.855c2.287,1.012,3.946,3.371,3.946,6.463c0,2.805-1.391,5.035-3.611,6.174v0.082
			c3.075,0.895,4.752,3.703,4.752,6.945c0,3.785-2.312,6.631-5.289,7.641c-1.383,0.451-2.713,0.537-4.3,0.537h-1.605v2.311
			c0,0.447-0.366,0.84-0.83,0.84h-2.392c-0.463,0-0.836-0.393-0.836-0.84v-2.311h-2.698v2.311c0,0.447-0.366,0.84-0.83,0.84h-2.404
			c-0.452,0-0.83-0.393-0.83-0.84v-2.311h-2.307c-0.366,0-0.672-0.301-0.672-0.672l-0.007-2.002c-0.005-0.377,0.3-0.67,0.666-0.67
			h2.319V260.93h-2.453c-0.293,0-0.525-0.232-0.525-0.523v-2.283c0-0.293,0.232-0.525,0.525-0.525h2.453v-2.344
			c0-0.463,0.378-0.83,0.83-0.83h2.404c0.464,0,0.83,0.367,0.83,0.83v2.344H130.183z M97.067,112.756
			c2.506,2.368,5.097,4.646,7.759,6.838c-1.054,3.057-1.634,6.334-1.634,9.75c0,9.771,4.686,18.447,11.931,23.907
			c-2.346,12.408-3.778,25.562-4.161,39.261H65.195C66.861,162.193,78.587,134.527,97.067,112.756z M97.067,287.242
			c-18.48-21.771-30.206-49.438-31.872-79.754h45.767c0.4,14.316,1.945,28.039,4.48,40.939c-7.426,5.445-12.25,14.229-12.25,24.141
			c0,2.855,0.409,5.615,1.156,8.23C101.854,282.873,99.422,285.016,97.067,287.242z M107.368,298.098
			c1.538-1.453,3.116-2.865,4.719-4.246c5.404,5.338,12.829,8.637,21.026,8.637c0.425,0,0.846-0.014,1.266-0.031
			c4.85,8.807,10.328,16.611,16.34,23.211C134.507,319.287,119.825,309.865,107.368,298.098z M192.514,334.305
			c-16.455-3.166-31.506-16.613-43.13-36.631c8.213-5.336,13.649-14.582,13.649-25.105c0-2.078-0.213-4.105-0.616-6.064
			c9.636-2.803,19.709-4.564,30.097-5.137V334.305z M192.514,246.377c-12.771,0.633-25.122,2.879-36.861,6.525
			c-5.484-6.281-13.545-10.254-22.539-10.254c-1.108,0-2.201,0.064-3.279,0.182c-2.147-11.244-3.494-23.1-3.883-35.342h66.563
			V246.377z M192.514,192.512h-66.563c0.368-11.568,1.597-22.785,3.542-33.474c1.188,0.145,2.394,0.227,3.62,0.227
			c9.714,0,18.342-4.633,23.808-11.804c11.359,3.423,23.277,5.544,35.593,6.154V192.512z M192.514,138.633
			c-10.278-0.565-20.244-2.304-29.783-5.059c0.195-1.382,0.303-2.793,0.303-4.23c0-10.861-5.787-20.37-14.446-25.612
			c11.729-20.79,27.092-34.798,43.927-38.036V138.633z M334.808,192.512h-9.412c-3.689-19.48-19.92-34.507-39.988-36.37
			c-1.545-8.786-3.545-17.212-5.957-25.202c8.426-5.288,16.283-11.386,23.479-18.19C321.413,134.521,333.14,162.191,334.808,192.512
			z M271.856,226.346v4.164c0,0.801-0.658,1.504-1.494,1.504h-4.338c-0.803,0-1.494-0.703-1.494-1.504v-4.164h-4.144
			c-0.658,0-1.219-0.535-1.219-1.199l-0.006-3.604c-0.006-0.691,0.533-1.219,1.193-1.219h4.175v-39.626h-4.407
			c-0.527,0-0.955-0.418-0.955-0.945v-4.107c0-0.528,0.428-0.946,0.955-0.946h4.407v-4.218c0-0.836,0.691-1.495,1.494-1.495h4.338
			c0.836,0,1.494,0.659,1.494,1.495v4.218h4.846v-4.218c0-0.836,0.688-1.495,1.521-1.495h4.285c0.836,0,1.494,0.659,1.494,1.495
			v4.218h1.934c3.734,0,6.502,0.373,9.076,1.537c4.104,1.825,7.092,6.068,7.092,11.631c0,5.051-2.504,9.069-6.502,11.115v0.139
			c5.535,1.617,8.561,6.664,8.561,12.501c0,6.814-4.168,11.943-9.527,13.756c-2.477,0.822-4.881,0.967-7.738,0.967h-2.895v4.164
			c0,0.801-0.658,1.504-1.494,1.504h-4.285c-0.834,0-1.521-0.703-1.521-1.504v-4.164H271.856z M292.624,101.891
			c-5.637,5.328-11.729,10.173-18.215,14.478c-6.594-16.776-15.159-31.074-25.181-42.06
			C265.458,80.688,280.155,90.112,292.624,101.891z M207.49,65.698c21.905,4.212,41.324,26.648,53.48,58.556
			c-16.223,8.254-34.324,13.321-53.48,14.374V65.698z M207.49,153.615c20.811-1.029,40.497-6.345,58.245-15.042
			c1.738,6.006,3.229,12.267,4.459,18.726c-16.866,4.234-29.939,17.983-33.203,35.214H207.49V153.615z M207.49,207.488h29.182
			c2.621,17.979,15.859,32.502,33.157,37c-1.16,5.824-2.518,11.492-4.094,16.941c-17.747-8.701-37.435-14.02-58.245-15.049V207.488z
			 M207.49,334.303v-72.936c19.156,1.053,37.254,6.131,53.48,14.379C248.814,307.654,229.396,330.09,207.49,334.303z
			 M249.281,325.67c10.012-10.99,18.56-25.299,25.147-42.072c6.488,4.307,12.568,9.17,18.207,14.498
			C280.179,309.869,265.495,319.289,249.281,325.67z M302.925,287.254c-7.191-6.801-15.045-12.898-23.465-18.186
			c2.236-7.414,4.113-15.205,5.605-23.309c20.865-1.777,37.66-17.773,40.648-38.271h9.094
			C333.14,237.811,321.411,265.482,302.925,287.254z"/>
	</g>
</g>
<g id="Grey" display="none">
	<g display="inline">
		<path fill="#8B8B8B" d="M138.56,139.833c1.666-0.707,2.733-2.491,2.733-4.639c0-2.978-1.952-4.928-4.959-4.928l-8.85,0.008v9.948
			h8.513C136.822,140.224,137.792,140.152,138.56,139.833z"/>
		<path fill="#8B8B8B" d="M136.334,272.994l-8.85,0.008v9.949h8.513c0.825,0,1.795-0.072,2.563-0.391
			c1.666-0.707,2.733-2.49,2.733-4.639C141.293,274.943,139.341,272.994,136.334,272.994z"/>
		<path fill="#8B8B8B" d="M127.484,269.67h8.44c2.594,0,4.221-1.781,4.221-4.389c0-1.666-0.65-3.094-1.871-3.781
			c-0.813-0.402-1.74-0.57-2.961-0.57h-7.829V269.67z"/>
		<path fill="#8B8B8B" d="M140.146,122.555c0-1.667-0.65-3.094-1.871-3.782c-0.813-0.403-1.74-0.569-2.961-0.569h-7.829v8.74h8.44
			C138.519,126.943,140.146,125.161,140.146,122.555z"/>
		<path fill="#8B8B8B" d="M294.636,188.526c0-2.994-1.158-5.564-3.355-6.809c-1.479-0.727-3.146-1.02-5.344-1.02h-14.08v15.732
			h15.18C291.72,196.43,294.636,193.221,294.636,188.526z"/>
		<path fill="#8B8B8B" d="M291.78,219.621c3.014-1.271,4.92-4.482,4.92-8.348c0-5.361-3.514-8.873-8.924-8.873l-15.92,0.027v17.896
			h15.311C288.655,220.324,290.407,220.195,291.78,219.621z"/>
		<path fill="#8B8B8B" d="M200.002,50.001C117.29,50.001,50,117.291,50,200c0,82.708,67.29,150,150.002,150
			c82.71,0,149.999-67.291,149.999-150C350.001,117.291,282.712,50.001,200.002,50.001z M150.772,74.312
			c-6.452,7.071-12.296,15.524-17.402,25.119c-0.086,0-0.171-0.006-0.257-0.006c-7.661,0-14.646,2.883-19.939,7.619
			c-1.974-1.671-3.917-3.376-5.796-5.151C119.847,90.114,134.544,80.689,150.772,74.312z M127.484,143.568v2.31
			c0,0.449-0.366,0.84-0.83,0.84h-2.404c-0.452,0-0.83-0.391-0.83-0.84v-2.31h-2.307c-0.366,0-0.672-0.301-0.672-0.672l-0.007-2.001
			c-0.005-0.379,0.3-0.672,0.666-0.672h2.319v-22.02h-2.453c-0.293,0-0.525-0.232-0.525-0.525v-2.282
			c0-0.293,0.232-0.525,0.525-0.525h2.453v-2.344c0-0.464,0.378-0.83,0.83-0.83h2.404c0.464,0,0.83,0.366,0.83,0.83v2.344h2.698
			v-2.344c0-0.464,0.373-0.83,0.836-0.83h2.392c0.464,0,0.83,0.366,0.83,0.83v2.344h1.073c2.075,0,3.612,0.208,5.034,0.854
			c2.287,1.013,3.946,3.372,3.946,6.464c0,2.805-1.391,5.034-3.611,6.174v0.081c3.075,0.895,4.752,3.704,4.752,6.945
			c0,3.786-2.312,6.631-5.289,7.642c-1.383,0.451-2.713,0.537-4.3,0.537h-1.605v2.31c0,0.449-0.366,0.84-0.83,0.84h-2.392
			c-0.463,0-0.836-0.391-0.836-0.84v-2.31H127.484z M130.183,257.598v-2.344c0-0.463,0.373-0.83,0.836-0.83h2.392
			c0.464,0,0.83,0.367,0.83,0.83v2.344h1.073c2.075,0,3.612,0.207,5.034,0.855c2.287,1.012,3.946,3.371,3.946,6.463
			c0,2.805-1.391,5.035-3.611,6.174v0.082c3.075,0.895,4.752,3.703,4.752,6.945c0,3.785-2.312,6.631-5.289,7.641
			c-1.383,0.451-2.713,0.537-4.3,0.537h-1.605v2.311c0,0.447-0.366,0.84-0.83,0.84h-2.392c-0.463,0-0.836-0.393-0.836-0.84v-2.311
			h-2.698v2.311c0,0.447-0.366,0.84-0.83,0.84h-2.404c-0.452,0-0.83-0.393-0.83-0.84v-2.311h-2.307
			c-0.366,0-0.672-0.301-0.672-0.672l-0.007-2.002c-0.005-0.377,0.3-0.67,0.666-0.67h2.319V260.93h-2.453
			c-0.293,0-0.525-0.232-0.525-0.523v-2.283c0-0.293,0.232-0.525,0.525-0.525h2.453v-2.344c0-0.463,0.378-0.83,0.83-0.83h2.404
			c0.464,0,0.83,0.367,0.83,0.83v2.344H130.183z M97.067,112.756c2.506,2.368,5.097,4.646,7.759,6.838
			c-1.054,3.057-1.634,6.334-1.634,9.75c0,9.771,4.686,18.447,11.931,23.907c-2.346,12.408-3.778,25.562-4.161,39.261H65.195
			C66.861,162.193,78.587,134.527,97.067,112.756z M97.067,287.242c-18.48-21.771-30.206-49.438-31.872-79.754h45.767
			c0.4,14.316,1.945,28.039,4.48,40.939c-7.426,5.445-12.25,14.229-12.25,24.141c0,2.855,0.409,5.615,1.156,8.23
			C101.854,282.873,99.422,285.016,97.067,287.242z M107.368,298.098c1.538-1.453,3.116-2.865,4.719-4.246
			c5.404,5.338,12.829,8.637,21.026,8.637c0.425,0,0.846-0.014,1.266-0.031c4.85,8.807,10.328,16.611,16.34,23.211
			C134.507,319.287,119.825,309.865,107.368,298.098z M192.514,334.305c-16.455-3.166-31.506-16.613-43.13-36.631
			c8.213-5.336,13.649-14.582,13.649-25.105c0-2.078-0.213-4.105-0.616-6.064c9.636-2.803,19.709-4.564,30.097-5.137V334.305z
			 M192.514,246.377c-12.771,0.633-25.122,2.879-36.861,6.525c-5.484-6.281-13.545-10.254-22.539-10.254
			c-1.108,0-2.201,0.064-3.279,0.182c-2.147-11.244-3.494-23.1-3.883-35.342h66.563V246.377z M192.514,192.512h-66.563
			c0.368-11.568,1.597-22.785,3.542-33.474c1.188,0.145,2.394,0.227,3.62,0.227c9.714,0,18.342-4.633,23.808-11.804
			c11.359,3.423,23.277,5.544,35.593,6.154V192.512z M192.514,138.633c-10.278-0.565-20.244-2.304-29.783-5.059
			c0.195-1.382,0.303-2.793,0.303-4.23c0-10.861-5.787-20.37-14.446-25.612c11.729-20.79,27.092-34.798,43.927-38.036V138.633z
			 M334.808,192.512h-9.412c-3.689-19.48-19.92-34.507-39.988-36.37c-1.545-8.786-3.545-17.212-5.957-25.202
			c8.426-5.288,16.283-11.386,23.479-18.19C321.413,134.521,333.14,162.191,334.808,192.512z M271.856,226.346v4.164
			c0,0.801-0.658,1.504-1.494,1.504h-4.338c-0.803,0-1.494-0.703-1.494-1.504v-4.164h-4.144c-0.658,0-1.219-0.535-1.219-1.199
			l-0.006-3.604c-0.006-0.691,0.533-1.219,1.193-1.219h4.175v-39.626h-4.407c-0.527,0-0.955-0.418-0.955-0.945v-4.107
			c0-0.528,0.428-0.946,0.955-0.946h4.407v-4.218c0-0.836,0.691-1.495,1.494-1.495h4.338c0.836,0,1.494,0.659,1.494,1.495v4.218
			h4.846v-4.218c0-0.836,0.688-1.495,1.521-1.495h4.285c0.836,0,1.494,0.659,1.494,1.495v4.218h1.934
			c3.734,0,6.502,0.373,9.076,1.537c4.104,1.825,7.092,6.068,7.092,11.631c0,5.051-2.504,9.069-6.502,11.115v0.139
			c5.535,1.617,8.561,6.664,8.561,12.501c0,6.814-4.168,11.943-9.527,13.756c-2.477,0.822-4.881,0.967-7.738,0.967h-2.895v4.164
			c0,0.801-0.658,1.504-1.494,1.504h-4.285c-0.834,0-1.521-0.703-1.521-1.504v-4.164H271.856z M292.624,101.891
			c-5.637,5.328-11.729,10.173-18.215,14.478c-6.594-16.776-15.159-31.074-25.181-42.06
			C265.458,80.688,280.155,90.112,292.624,101.891z M207.49,65.698c21.905,4.212,41.324,26.648,53.48,58.556
			c-16.223,8.254-34.324,13.321-53.48,14.374V65.698z M207.49,153.615c20.811-1.029,40.497-6.345,58.245-15.042
			c1.738,6.006,3.229,12.267,4.459,18.726c-16.866,4.234-29.939,17.983-33.203,35.214H207.49V153.615z M207.49,207.488h29.182
			c2.621,17.979,15.859,32.502,33.157,37c-1.16,5.824-2.518,11.492-4.094,16.941c-17.747-8.701-37.435-14.02-58.245-15.049V207.488z
			 M207.49,334.303v-72.936c19.156,1.053,37.254,6.131,53.48,14.379C248.814,307.654,229.396,330.09,207.49,334.303z
			 M249.281,325.67c10.012-10.99,18.56-25.299,25.147-42.072c6.488,4.307,12.568,9.17,18.207,14.498
			C280.179,309.869,265.495,319.289,249.281,325.67z M302.925,287.254c-7.191-6.801-15.045-12.898-23.465-18.186
			c2.236-7.414,4.113-15.205,5.605-23.309c20.865-1.777,37.66-17.773,40.648-38.271h9.094
			C333.14,237.811,321.411,265.482,302.925,287.254z"/>
	</g>
</g>
</svg>
