<svg xmlns:dc="http://purl.org/dc/elements/1.1/" xmlns:cc="http://creativecommons.org/ns#" xmlns:rdf="http://www.w3.org/1999/02/22-rdf-syntax-ns#" xmlns:svg="http://www.w3.org/2000/svg" xmlns="http://www.w3.org/2000/svg" xmlns:sodipodi="http://sodipodi.sourceforge.net/DTD/sodipodi-0.dtd" xmlns:inkscape="http://www.inkscape.org/namespaces/inkscape" id="Layer_1" x="0px" y="0px" width="735.24731" height="591.60284" viewBox="0 0 735.24731 591.60284" xml:space="preserve" sodipodi:docname="cloud_mining_icon.svg" inkscape:version="0.92.1 r15371"><metadata id="metadata21"></metadata><defs id="defs19"></defs> <path d="m 530.54733,258.90282 c -47.938,0 -89.219,26.688 -111.156,65.688 -5.469,-0.969 -11.063,-1.688 -16.844,-1.688 -41.938,0 -77.219,27.063 -90.281,64.563 -1.906,-0.125 -3.75,-0.563 -5.719,-0.563 -53,0 -96,43 -96,96 0,53 43,96 96,96 h 320 c 53,0 96,-43 96,-96 0,-41.938 -27.063,-77.25 -64.563,-90.313 0.063,-1.937 0.563,-3.749 0.563,-5.687 0,-70.687 -57.312,-128 -128,-128 z" id="path14" style="fill:none;fill-opacity:1;stroke:#fab915;stroke-width:25.39999962;stroke-miterlimit:4;stroke-dasharray:none;stroke-opacity:1" inkscape:connector-curvature="0" sodipodi:nodetypes="scscssssscss"></path> <g id="g857" transform="matrix(0.8987019,0.91811833,-0.91811833,0.8987019,-313.22621,-682.17968)" style="fill:#fab915;fill-opacity:1"><rect rx="9.1416836" ry="9.1416836" y="112.81316" x="757.23608" height="292.53387" width="24.377823" id="rect830" style="fill:#fab915;fill-opacity:1;stroke:none"></rect><rect ry="6.0645056" rx="6.6919188" y="86.91172" x="747.33264" height="45.708408" width="44.184769" id="rect848" style="fill:#fab915;fill-opacity:1;stroke:none"></rect><path sodipodi:nodetypes="zcscz" inkscape:connector-curvature="0" id="path852" d="m 771.26232,98.602871 c 130.75598,-0.30622 167.80861,42.258369 167.80861,42.258369 0,0 -35.47954,-21.09226 -167.80861,-20.82296 -131.732,0.26809 -171.48325,26.33493 -171.48325,26.33493 0,0 40.72727,-47.464119 171.48325,-47.770339 z" style="fill:#fab915;fill-opacity:1;stroke:none;stroke-width:1px;stroke-linecap:butt;stroke-linejoin:miter;stroke-opacity:1"></path></g><g style="font-style:normal;font-variant:normal;font-weight:normal;font-stretch:normal;font-size:189.32336426px;line-height:1.25;font-family:icomoon;-inkscape-font-specification:icomoon;letter-spacing:0px;word-spacing:0px;fill:#fab915;fill-opacity:1;stroke:none;stroke-width:4.73308468" id="text861"><path d="m 560.24946,440.47414 v -0.36977 q 9.05942,-4.43727 14.05134,-13.12692 5.17681,-8.68964 5.17681,-19.96769 0,-12.38737 -5.91635,-21.44679 -5.91636,-9.05942 -15.16066,-13.3118 -5.73147,-2.58841 -12.20249,-3.51284 -6.28612,-0.92443 -14.606,-0.92443 h -5.73147 v -12.57225 q 0,-1.84886 -1.2942,-3.14307 -1.2942,-1.2942 -3.14306,-1.2942 h -12.94203 q -1.84886,0 -3.14306,1.2942 -1.29421,1.29421 -1.29421,3.14307 v 12.57225 h -14.42111 v -12.57225 q 0,-1.84886 -1.2942,-3.14307 -1.29421,-1.2942 -3.14307,-1.2942 h -12.57225 q -2.03375,0 -3.32795,1.2942 -1.10932,1.29421 -1.10932,3.14307 v 12.57225 h -13.3118 q -1.10931,0 -2.03374,0.92443 -0.73955,0.73955 -0.73955,2.03375 v 12.20248 q 0,1.29421 0.73955,2.21864 0.92443,0.73954 2.03374,0.73954 h 13.3118 V 503.5203 h -12.38737 q -1.47909,0 -2.5884,1.10932 -0.92443,0.92443 -0.92443,2.40351 v 10.7234 q 0,1.47909 0.92443,2.5884 1.10931,0.92443 2.5884,0.92443 h 12.38737 v 12.20249 q 0,2.03374 1.10932,3.14306 1.2942,1.2942 3.32795,1.2942 h 12.94202 q 1.84887,0 2.95818,-1.2942 1.2942,-1.10932 1.2942,-3.14306 v -12.20249 h 14.60601 v 12.20249 q 0,2.03374 1.2942,3.14306 1.2942,1.2942 3.14306,1.2942 h 12.94203 q 1.84886,0 3.14306,-1.2942 1.29421,-1.10932 1.29421,-3.14306 v -12.20249 h 8.50476 q 6.28612,0 11.83271,-0.36977 5.73147,-0.55466 11.09316,-2.5884 11.83271,-3.88261 20.15259,-14.60601 8.31987,-10.90827 8.31987,-26.43871 -0.18488,-12.75714 -6.84078,-22.92587 -6.47102,-10.35362 -19.04327,-13.86646 z m -28.65735,-54.5414 q 4.99193,0 8.68965,0.73954 3.88261,0.73955 7.02567,2.40352 4.99193,2.7733 7.58033,8.13499 2.58841,5.3617 2.58841,12.0176 0,10.35362 -6.28613,16.82463 -6.10124,6.47102 -16.45486,6.47102 h -44.92733 v -46.5913 h 41.78426 z m 17.3793,115.36893 q -3.14307,1.47908 -6.84079,1.84886 -3.69772,0.36977 -6.84079,0.36977 h -45.48198 v -53.2472 h 47.33085 q 12.20248,0 19.41304,7.21056 7.21055,7.02567 7.21055,18.85838 0,8.87454 -4.06749,15.53043 -3.88261,6.6559 -10.72339,9.4292 z" style="fill:#fab915;fill-opacity:1;stroke-width:4.73308468" id="path863"></path></g></svg>